<svg width="26" height="47" viewBox="0 0 26 47" fill="none" xmlns="http://www.w3.org/2000/svg">
<path d="M12.5 46.1071C9.88435 43.2274 6.33713 41.3621 2.48214 40.8392C2.04336 40.7907 1.63811 40.5813 1.34461 40.2515C1.05112 39.9218 0.890177 39.495 0.892855 39.0535V24.6785C0.892894 24.4229 0.947805 24.1703 1.05388 23.9377C1.15995 23.7052 1.31471 23.4981 1.5077 23.3305C1.70069 23.1629 1.92741 23.0387 2.17254 22.9663C2.41766 22.8938 2.67548 22.8749 2.92857 22.9107C6.6148 23.5225 9.98699 25.3595 12.5 28.1249V46.1071ZM12.5 46.1071C15.1156 43.2274 18.6629 41.3621 22.5179 40.8392C22.9566 40.7907 23.3619 40.5813 23.6554 40.2515C23.9489 39.9218 24.1098 39.495 24.1071 39.0535V24.6785C24.1071 24.4229 24.0522 24.1703 23.9461 23.9377C23.84 23.7052 23.6853 23.4981 23.4923 23.3305C23.2993 23.1629 23.0726 23.0387 22.8275 22.9663C22.5823 22.8938 22.3245 22.8749 22.0714 22.9107C18.3852 23.5225 15.013 25.3595 12.5 28.1249V46.1071Z" fill="#0D99FF"/>
<path d="M2.75 28.251V37.251ZM2.75 35.751H17.75C17.75 34.9553 17.4339 34.1923 16.8713 33.6297C16.3087 33.0671 15.5456 32.751 14.75 32.751H11C11 31.9553 10.6839 31.1923 10.1213 30.6297C9.55871 30.0671 8.79565 29.751 8 29.751H2.75M8 32.751H11ZM25.25 20C25.25 19.8011 25.171 19.6103 25.0303 19.4697C24.8897 19.329 24.6989 19.25 24.5 19.25H20.75V15.5C20.75 15.3011 20.671 15.1103 20.5303 14.9697C20.3897 14.829 20.1989 14.75 20 14.75H17C16.8011 14.75 16.6103 14.829 16.4697 14.9697C16.329 15.1103 16.25 15.3011 16.25 15.5V19.25H12.5C12.3011 19.25 12.1103 19.329 11.9697 19.4697C11.829 19.6103 11.75 19.8011 11.75 20V23C11.75 23.1989 11.829 23.3897 11.9697 23.5303C12.1103 23.671 12.3011 23.75 12.5 23.75H16.25V27.5C16.25 27.6989 16.329 27.8897 16.4697 28.0303C16.6103 28.171 16.8011 28.25 17 28.25H20C20.1989 28.25 20.3897 28.171 20.5303 28.0303C20.671 27.8897 20.75 27.6989 20.75 27.5V23.75H24.5C24.6989 23.75 24.8897 23.671 25.0303 23.5303C25.171 23.3897 25.25 23.1989 25.25 23V20Z" fill="#FFDBAC"/>
<path d="M25.25 20C25.25 19.8011 25.171 19.6103 25.0303 19.4697C24.8897 19.329 24.6989 19.25 24.5 19.25H20.75V15.5C20.75 15.3011 20.671 15.1103 20.5303 14.9697C20.3897 14.829 20.1989 14.75 20 14.75H17C16.8011 14.75 16.6103 14.829 16.4697 14.9697C16.329 15.1103 16.25 15.3011 16.25 15.5V19.25H12.5C12.3011 19.25 12.1103 19.329 11.9697 19.4697C11.829 19.6103 11.75 19.8011 11.75 20V23C11.75 23.1989 11.829 23.3897 11.9697 23.5303C12.1103 23.671 12.3011 23.75 12.5 23.75H16.25V27.5C16.25 27.6989 16.329 27.8897 16.4697 28.0303C16.6103 28.171 16.8011 28.25 17 28.25H20C20.1989 28.25 20.3897 28.171 20.5303 28.0303C20.671 27.8897 20.75 27.6989 20.75 27.5V23.75H24.5C24.6989 23.75 24.8897 23.671 25.0303 23.5303C25.171 23.3897 25.25 23.1989 25.25 23V20Z" fill="#4CAF50"/>
<g clip-path="url(#clip0_95_443)">
<path d="M2.5 13.7935C2.5 13.7935 5.5 12.5435 8 12.5435C9.7765 12.5435 11.728 13.2445 13.025 13.8165C13.9995 14.2465 14.565 14.725 14.7925 15.766C14.9505 16.4875 14.432 17.6915 13.6955 17.7495L13.1295 17.794C14.828 17.794 19.308 17.005 20.8755 16.719C21.243 16.652 21.6225 16.603 21.974 16.73C22.42 16.891 23.022 17.281 23.319 18.2275C23.563 19.0045 23.0085 19.7575 22.246 20.045C20.03 20.8805 15.438 22.5 13.13 22.5C7 22.5 2.5 21 2.5 21H1.75V13.8165L2.5 13.7935Z" fill="white"/>
<path d="M2.5 13.782C2.5 13.782 5.5 12.5 8 12.5C9.7635 12.5 11.7 13.209 12.997 13.7935C13.992 14.2415 14.5645 14.5245 14.792 15.592C14.9505 16.3335 14.418 17.5695 13.662 17.6305L13.1295 17.6735M13.1295 17.6735C11.9085 17.6735 10.0185 17.3115 10.0185 17.3115M13.1295 17.6735C14.823 17.6735 19.281 16.869 20.861 16.5735C21.238 16.5035 21.6285 16.452 21.987 16.587C22.438 16.7575 23.043 17.169 23.332 18.162C23.558 18.938 23.0155 19.6845 22.262 19.976C20.052 20.831 15.4435 22.5 13.1295 22.5C7 22.5 2.5 20.9615 2.5 20.9615" stroke="#2859C5" stroke-width="1.5" stroke-linecap="round" stroke-linejoin="round"/>
<path d="M16.063 11.49C16.079 11.9515 16.365 12.3485 16.821 12.4185C17.116 12.4635 17.5055 12.5 18 12.5C18.3945 12.5028 18.7886 12.4756 19.179 12.4185C19.635 12.3485 19.921 11.9515 19.937 11.4905C19.9555 10.9605 19.977 10.139 19.9895 8.98946C20.8233 8.9818 21.6571 8.9643 22.4905 8.93696C22.9515 8.92096 23.3485 8.63496 23.4185 8.17896C23.4635 7.88396 23.5 7.49446 23.5 6.99996C23.5029 6.60546 23.4756 6.21132 23.4185 5.82096C23.3485 5.36496 22.9515 5.07896 22.4905 5.06296C21.9605 5.04446 21.139 5.02296 19.9895 5.01046C19.9818 4.17662 19.9643 3.34289 19.937 2.50946C19.921 2.04846 19.635 1.65146 19.179 1.58146C18.7886 1.52452 18.3945 1.49727 18 1.49996C17.6055 1.49708 17.2114 1.52433 16.821 1.58146C16.365 1.65146 16.079 2.04846 16.063 2.50946C16.0445 3.03946 16.023 3.86096 16.0105 5.01046C15.1767 5.01812 14.3429 5.03563 13.5095 5.06296C13.0485 5.07896 12.6515 5.36496 12.5815 5.82096C12.5365 6.11596 12.5 6.50546 12.5 6.99996C12.5 7.49446 12.536 7.88446 12.5815 8.17896C12.6515 8.63496 13.0485 8.92096 13.5095 8.93696C14.0395 8.95546 14.861 8.97696 16.0105 8.98946C16.023 10.139 16.0445 10.961 16.063 11.4905V11.49Z" fill="#8FBFFA"/>
<path d="M16.063 11.49C16.079 11.9515 16.365 12.3485 16.821 12.4185C17.116 12.4635 17.5055 12.5 18 12.5C18.3945 12.5028 18.7886 12.4756 19.179 12.4185C19.635 12.3485 19.921 11.9515 19.937 11.4905C19.9555 10.9605 19.977 10.139 19.9895 8.98946C20.8233 8.9818 21.6571 8.9643 22.4905 8.93696C22.9515 8.92096 23.3485 8.63496 23.4185 8.17896C23.4635 7.88396 23.5 7.49446 23.5 6.99996C23.5029 6.60546 23.4756 6.21132 23.4185 5.82096C23.3485 5.36496 22.9515 5.07896 22.4905 5.06296C21.9605 5.04446 21.139 5.02296 19.9895 5.01046C19.9818 4.17662 19.9643 3.34289 19.937 2.50946C19.921 2.04846 19.635 1.65146 19.179 1.58146C18.7886 1.52452 18.3945 1.49727 18 1.49996C17.6055 1.49708 17.2114 1.52433 16.821 1.58146C16.365 1.65146 16.079 2.04846 16.063 2.50946C16.0445 3.03946 16.023 3.86096 16.0105 5.01046C15.1767 5.01812 14.3429 5.03563 13.5095 5.06296C13.0485 5.07896 12.6515 5.36496 12.5815 5.82096C12.5365 6.11596 12.5 6.50546 12.5 6.99996C12.5 7.49446 12.536 7.88446 12.5815 8.17896C12.6515 8.63496 13.0485 8.92096 13.5095 8.93696C14.0395 8.95546 14.861 8.97696 16.0105 8.98946C16.023 10.139 16.0445 10.961 16.063 11.4905V11.49Z" stroke="#2859C5" stroke-width="1.5" stroke-linecap="round" stroke-linejoin="round"/>
</g>
<defs>
<clipPath id="clip0_95_443">
<rect width="24" height="24" fill="white" transform="translate(1)"/>
</clipPath>
</defs>
</svg>
