<svg width="30" height="30" viewBox="0 0 30 30" fill="none" xmlns="http://www.w3.org/2000/svg">
<path d="M14.6072 29.1071C11.9915 26.2274 8.44431 24.3621 4.58932 23.8392C4.15053 23.7907 3.74529 23.5813 3.45179 23.2515C3.15829 22.9218 2.99735 22.495 3.00003 22.0535V7.67851C3.00007 7.42291 3.05498 7.17029 3.16106 6.93773C3.26713 6.70518 3.42189 6.4981 3.61488 6.33051C3.80787 6.16291 4.03459 6.0387 4.27971 5.96627C4.52484 5.89383 4.78266 5.87487 5.03575 5.91065C8.72198 6.52245 12.0942 8.35954 14.6072 11.1249V29.1071ZM14.6072 29.1071C17.2228 26.2274 20.77 24.3621 24.625 23.8392C25.0638 23.7907 25.4691 23.5813 25.7626 23.2515C26.0561 22.9218 26.217 22.495 26.2143 22.0535V7.67851C26.2143 7.42291 26.1594 7.17029 26.0533 6.93773C25.9472 6.70518 25.7925 6.4981 25.5995 6.33051C25.4065 6.16291 25.1798 6.0387 24.9346 5.96627C24.6895 5.89383 24.4317 5.87487 24.1786 5.91065C20.4924 6.52245 17.1202 8.35954 14.6072 11.1249V29.1071Z" fill="#0D99FF"/>
<path d="M3.75 13.2937C3.75 13.2937 6.75 12.0437 9.25 12.0437C11.0265 12.0437 12.978 12.7447 14.275 13.3167C15.2495 13.7467 15.815 14.2252 16.0425 15.2662C16.2005 15.9877 15.682 17.1917 14.9455 17.2497L14.3795 17.2942C16.078 17.2942 20.558 16.5052 22.1255 16.2192C22.493 16.1522 22.8725 16.1032 23.224 16.2302C23.67 16.3912 24.272 16.7812 24.569 17.7277C24.813 18.5047 24.2585 19.2577 23.496 19.5452C21.28 20.3807 16.688 22.0002 14.38 22.0002C8.25 22.0002 3.75 20.5002 3.75 20.5002H3V13.3167L3.75 13.2937Z" fill="#FFDBAC"/>
<path d="M3.75 13.2822C3.75 13.2822 6.75 12.0002 9.25 12.0002C11.0135 12.0002 12.95 12.7092 14.247 13.2937C15.242 13.7417 15.8145 14.0247 16.042 15.0922C16.2005 15.8337 15.668 17.0697 14.912 17.1307L14.3795 17.1737M14.3795 17.1737C13.1585 17.1737 11.2685 16.8117 11.2685 16.8117M14.3795 17.1737C16.073 17.1737 20.531 16.3692 22.111 16.0737C22.488 16.0037 22.8785 15.9522 23.237 16.0872C23.688 16.2577 24.293 16.6692 24.582 17.6622C24.808 18.4382 24.2655 19.1847 23.512 19.4762C21.302 20.3312 16.6935 22.0002 14.3795 22.0002C8.25 22.0002 3.75 20.4617 3.75 20.4617" stroke="#2859C5" stroke-width="1.5" stroke-linecap="round" stroke-linejoin="round"/>
<path d="M17.313 10.9902C17.329 11.4517 17.615 11.8487 18.071 11.9187C18.366 11.9637 18.7555 12.0002 19.25 12.0002C19.6445 12.0031 20.0386 11.9758 20.429 11.9187C20.885 11.8487 21.171 11.4517 21.187 10.9907C21.2055 10.4607 21.227 9.63921 21.2395 8.48971C22.0733 8.48204 22.9071 8.46454 23.7405 8.43721C24.2015 8.42121 24.5985 8.13521 24.6685 7.67921C24.7135 7.38421 24.75 6.99471 24.75 6.50021C24.7529 6.1057 24.7256 5.71156 24.6685 5.32121C24.5985 4.86521 24.2015 4.57921 23.7405 4.56321C23.2105 4.54471 22.389 4.52321 21.2395 4.51071C21.2318 3.67686 21.2143 2.84314 21.187 2.00971C21.171 1.54871 20.885 1.15171 20.429 1.08171C20.0386 1.02476 19.6445 0.997519 19.25 1.00021C18.8555 0.997325 18.4614 1.02457 18.071 1.08171C17.615 1.15171 17.329 1.54871 17.313 2.00971C17.2945 2.53971 17.273 3.36121 17.2605 4.51071C16.4267 4.51837 15.5929 4.53587 14.7595 4.56321C14.2985 4.57921 13.9015 4.86521 13.8315 5.32121C13.7865 5.61621 13.75 6.00571 13.75 6.50021C13.75 6.99471 13.786 7.38471 13.8315 7.67921C13.9015 8.13521 14.2985 8.42121 14.7595 8.43721C15.2895 8.45571 16.111 8.47721 17.2605 8.48971C17.273 9.63921 17.2945 10.4607 17.313 10.9902Z" fill="#4CAF50"/>
<path d="M17.313 10.9902C17.329 11.4517 17.615 11.8487 18.071 11.9187C18.366 11.9637 18.7555 12.0002 19.25 12.0002C19.6445 12.0031 20.0386 11.9758 20.429 11.9187C20.885 11.8487 21.171 11.4517 21.187 10.9907C21.2055 10.4607 21.227 9.63921 21.2395 8.48971C22.0733 8.48204 22.9071 8.46454 23.7405 8.43721C24.2015 8.42121 24.5985 8.13521 24.6685 7.67921C24.7135 7.38421 24.75 6.99471 24.75 6.50021C24.7529 6.1057 24.7256 5.71156 24.6685 5.32121C24.5985 4.86521 24.2015 4.57921 23.7405 4.56321C23.2105 4.54471 22.389 4.52321 21.2395 4.51071C21.2318 3.67686 21.2143 2.84314 21.187 2.00971C21.171 1.54871 20.885 1.15171 20.429 1.08171C20.0386 1.02476 19.6445 0.997519 19.25 1.00021C18.8555 0.997325 18.4614 1.02457 18.071 1.08171C17.615 1.15171 17.329 1.54871 17.313 2.00971C17.2945 2.53971 17.273 3.36121 17.2605 4.51071C16.4267 4.51837 15.5929 4.53587 14.7595 4.56321C14.2985 4.57921 13.9015 4.86521 13.8315 5.32121C13.7865 5.61621 13.75 6.00571 13.75 6.50021C13.75 6.99471 13.786 7.38471 13.8315 7.67921C13.9015 8.13521 14.2985 8.42121 14.7595 8.43721C15.2895 8.45571 16.111 8.47721 17.2605 8.48971C17.273 9.63921 17.2945 10.4612 17.313 10.9907V10.9902Z" stroke="#2859C5" stroke-width="1.5" stroke-linecap="round" stroke-linejoin="round"/>
</svg>
